# Blender 4.3.2
# www.blender.org
mtllib stem_segment.mtl
o stem
v -0.274099 -0.386211 0.898257
v 0.164690 -0.386211 0.780684
v 0.485905 -0.386211 0.459469
v 0.603478 -0.386211 0.020681
v 0.485905 -0.386211 -0.418108
v 0.164690 -0.386211 -0.739323
v -0.274099 -0.386211 -0.856896
v -0.712887 -0.386211 -0.739323
v -1.034102 -0.386211 -0.418108
v -1.151675 -0.386211 0.020681
v -1.034102 -0.386211 0.459469
v -0.712887 -0.386211 0.780684
v -0.274099 2.404385 0.898257
v 0.164690 2.404385 0.780684
v 0.485905 2.404385 0.459469
v 0.603478 2.404385 0.020681
v 0.485905 2.404385 -0.418108
v 0.164690 2.404385 -0.739323
v -0.274099 2.404385 -0.856896
v -0.712887 2.404385 -0.739323
v -1.034102 2.404385 -0.418108
v -1.151675 2.404385 0.020681
v -1.034102 2.404385 0.459469
v -0.712887 2.404385 0.780684
v -0.047013 -0.386211 0.868176
v 0.346312 -0.386211 0.641091
v 0.573398 -0.386211 0.247766
v 0.573398 -0.386211 -0.206405
v 0.346312 -0.386211 -0.599730
v -0.047013 -0.386211 -0.826816
v -0.501184 -0.386211 -0.826816
v -0.894509 -0.386211 -0.599730
v -1.121595 -0.386211 -0.206405
v -1.121595 -0.386211 0.247766
v -0.894509 -0.386211 0.641091
v -0.501184 -0.386211 0.868177
v -0.047013 2.404385 0.868177
v 0.346312 2.404385 0.641091
v 0.573398 2.404385 0.247766
v 0.573398 2.404385 -0.206405
v 0.346312 2.404385 -0.599730
v -0.047013 2.404385 -0.826816
v -0.501184 2.404385 -0.826816
v -0.894509 2.404385 -0.599730
v -1.121595 2.404385 -0.206405
v -1.121595 2.404385 0.247766
v -0.894509 2.404385 0.641091
v -0.501184 2.404385 0.868176
v -0.274099 1.009087 0.898257
v 0.164690 1.009087 0.780684
v -0.712887 1.009087 -0.739323
v -1.034102 1.009087 -0.418108
v 0.485905 1.009087 -0.418108
v 0.164690 1.009087 -0.739323
v -0.712887 1.009087 0.780684
v 0.485905 1.009087 0.459469
v -1.151675 1.009087 0.020681
v -0.274099 1.009087 -0.856896
v 0.603478 1.009087 0.020680
v -1.034102 1.009087 0.459469
v -0.047013 1.009090 0.868177
v -0.894509 1.009090 -0.599730
v 0.346312 1.009090 -0.599730
v -0.501184 1.009090 0.868177
v 0.346312 1.009090 0.641091
v -1.121595 1.009090 -0.206405
v -0.047013 1.009090 -0.826816
v 0.573397 1.009090 0.247766
v -1.121595 1.009090 0.247766
v -0.501184 1.009090 -0.826816
v 0.573398 1.009090 -0.206405
v -0.894509 1.009090 0.641091
vn 0.3819 -0.0000 0.9242
vn 0.1313 -0.0000 0.9913
vn -0.7929 -0.0000 -0.6094
vn -0.6094 -0.0000 -0.7929
vn 0.6094 -0.0000 -0.7929
vn 0.7929 -0.0000 -0.6094
vn -0.1313 -0.0000 0.9913
vn -0.3819 -0.0000 0.9242
vn 0.7929 -0.0000 0.6094
vn 0.6094 -0.0000 0.7929
vn -0.9913 -0.0000 -0.1313
vn -0.9242 -0.0000 -0.3819
vn 0.1313 -0.0000 -0.9913
vn 0.3819 -0.0000 -0.9242
vn 0.9913 -0.0000 0.1313
vn 0.9242 -0.0000 0.3819
vn -0.9242 -0.0000 0.3819
vn -0.9913 -0.0000 0.1313
vn -0.3819 -0.0000 -0.9242
vn -0.1313 -0.0000 -0.9913
vn 0.9242 -0.0000 -0.3819
vn 0.9913 -0.0000 -0.1313
vn -0.6094 -0.0000 0.7929
vn -0.7929 -0.0000 0.6094
vt 0.000000 0.000000
s 0
usemtl Material.002
f 2/1/1 50/1/1 61/1/1 25/1/1
f 25/1/2 61/1/2 49/1/2 1/1/2
f 61/1/2 37/1/2 13/1/2 49/1/2
f 50/1/1 14/1/1 37/1/1 61/1/1
f 9/1/3 52/1/3 62/1/3 32/1/3
f 32/1/4 62/1/4 51/1/4 8/1/4
f 62/1/4 44/1/4 20/1/4 51/1/4
f 52/1/3 21/1/3 44/1/3 62/1/3
f 6/1/5 54/1/5 63/1/5 29/1/5
f 29/1/6 63/1/6 53/1/6 5/1/6
f 63/1/6 41/1/6 17/1/6 53/1/6
f 54/1/5 18/1/5 41/1/5 63/1/5
f 1/1/7 49/1/7 64/1/7 36/1/7
f 36/1/8 64/1/8 55/1/8 12/1/8
f 64/1/8 48/1/8 24/1/8 55/1/8
f 49/1/7 13/1/7 48/1/7 64/1/7
f 3/1/9 56/1/9 65/1/9 26/1/9
f 26/1/10 65/1/10 50/1/10 2/1/10
f 65/1/10 38/1/10 14/1/10 50/1/10
f 56/1/9 15/1/9 38/1/9 65/1/9
f 10/1/11 57/1/11 66/1/11 33/1/11
f 33/1/12 66/1/12 52/1/12 9/1/12
f 66/1/12 45/1/12 21/1/12 52/1/12
f 57/1/11 22/1/11 45/1/11 66/1/11
f 7/1/13 58/1/13 67/1/13 30/1/13
f 30/1/14 67/1/14 54/1/14 6/1/14
f 67/1/14 42/1/14 18/1/14 54/1/14
f 58/1/13 19/1/13 42/1/13 67/1/13
f 4/1/15 59/1/15 68/1/15 27/1/15
f 27/1/16 68/1/16 56/1/16 3/1/16
f 68/1/16 39/1/16 15/1/16 56/1/16
f 59/1/15 16/1/15 39/1/15 68/1/15
f 11/1/17 60/1/17 69/1/17 34/1/17
f 34/1/18 69/1/18 57/1/18 10/1/18
f 69/1/18 46/1/18 22/1/18 57/1/18
f 60/1/17 23/1/17 46/1/17 69/1/17
f 8/1/19 51/1/19 70/1/19 31/1/19
f 31/1/20 70/1/20 58/1/20 7/1/20
f 70/1/20 43/1/20 19/1/20 58/1/20
f 51/1/19 20/1/19 43/1/19 70/1/19
f 5/1/21 53/1/21 71/1/21 28/1/21
f 28/1/22 71/1/22 59/1/22 4/1/22
f 71/1/22 40/1/22 16/1/22 59/1/22
f 53/1/21 17/1/21 40/1/21 71/1/21
f 12/1/23 55/1/23 72/1/23 35/1/23
f 35/1/24 72/1/24 60/1/24 11/1/24
f 72/1/24 47/1/24 23/1/24 60/1/24
f 55/1/23 24/1/23 47/1/23 72/1/23
