# Blender 4.3.2
# www.blender.org
mtllib untitled.mtl
o Dandelion
v -199.681946 25.042793 -84.856735
v -183.756393 26.826395 -56.588383
v -183.037933 27.118505 -79.636902
v -160.870148 31.070543 -41.039013
v -143.364319 32.909245 -33.039253
v -137.312073 29.600283 -66.310104
v -160.816956 28.987511 -73.562302
v -126.860001 33.710697 -25.794676
v -90.038795 33.204933 -6.854064
v -96.976746 29.269152 -21.999590
v -95.501129 26.730232 -34.243004
v -86.327255 25.862713 -45.289440
v -115.380157 28.946430 -58.896698
v -127.802017 36.895016 -18.779593
v -73.918381 24.905954 -15.285765
v -64.288223 21.996183 -33.736210
v -66.518394 30.092201 5.683228
v -59.863968 20.730413 -16.346189
v -51.062229 19.003216 -26.282169
v -26.396126 11.184883 -2.538182
v -24.105289 11.116446 -9.231134
v -30.871124 13.252959 -13.160684
v -27.994797 11.789215 1.511168
v -4.957886 3.546334 6.826054
v -2.339088 3.538811 2.425091
v -1.456619 3.642799 1.019108
v -18.561035 13.865967 -22.608393
v -33.429142 16.777334 -27.090475
v -37.615135 21.073433 -37.902203
v -38.131889 30.432886 -54.020470
v -53.308575 25.738029 -48.696434
v -77.847458 27.537880 -54.219364
v -62.437412 31.843933 -61.668358
v -47.550449 38.261848 -66.300888
v -97.396225 41.498352 -86.211548
v -100.612335 46.770828 -94.146225
v -127.083450 39.896599 -93.628464
v -157.550140 37.885845 -101.556290
v -180.457581 33.161385 -101.630844
v -128.818924 22.362497 77.542328
v -105.563446 23.051960 80.753281
v -119.260696 24.094767 70.484314
v -87.517403 26.125635 74.290390
v -76.208733 27.483164 67.585114
v -93.778702 26.161240 50.316628
v -107.088104 25.668186 60.561882
v -65.793083 27.995632 61.072693
v -41.075764 26.989170 47.520157
v -52.620827 24.749794 45.506489
v -59.237053 23.290188 39.766712
v -62.070354 22.853571 30.088533
v -81.031326 25.563904 40.965752
v -61.830853 30.022121 64.432388
v -40.192360 21.226667 35.073696
v -47.087845 19.487452 22.314035
v -25.172092 24.038774 39.043324
v -35.577644 18.060223 26.737574
v -37.852161 16.891966 17.861452
v -15.273254 10.016919 13.473903
v -18.132515 10.078830 9.567180
v -22.868004 11.918939 11.779552
v -13.595818 10.370351 15.945155
v -2.097572 3.548275 5.298580
v -3.532906 3.565739 2.109627
v -3.967682 3.641464 1.063087
v -23.314445 12.122038 1.154483
v -31.511932 14.811305 7.664485
v -39.020508 18.184814 5.650877
v -47.829597 25.031570 -0.674765
v -51.061031 22.145868 10.067064
v -63.770988 24.091585 21.633760
v -61.711239 26.910900 9.843691
v -58.100342 31.028765 -0.515944
v -89.106895 34.896271 19.183977
v -94.677933 38.841106 17.540062
v -105.239914 34.209522 32.786865
v -121.970825 32.929146 46.536972
v -131.177841 29.259029 59.405464
v 129.453583 14.294805 113.768097
v 136.034302 23.316807 93.389008
v 120.475502 17.099651 103.285019
v 125.460907 29.282862 73.731155
v 113.755592 31.201782 60.595009
v 92.251839 21.002218 76.639252
v 107.004753 19.578434 90.161926
v 101.703773 31.890488 48.693840
v 72.784782 31.049837 22.047052
v 75.349937 26.500517 34.534996
v 70.346794 22.644131 42.291836
v 58.985725 19.968494 47.406017
v 77.913322 21.221231 64.509201
v 105.354347 35.871983 45.113304
v 55.866646 22.216902 23.254465
v 43.648643 17.570496 34.734440
v 52.244347 27.646664 6.235281
v 43.093864 18.006575 21.147196
v 33.990868 15.490042 27.316965
v 15.212502 9.897321 7.120440
v 13.185211 9.591291 12.335002
v 18.601921 11.258470 15.609958
v 16.587929 10.527149 3.969054
v -2.889473 3.581108 0.046413
v -4.647980 3.582741 3.743111
v -5.249306 3.667110 4.925640
v 8.067726 11.178831 22.687954
v 19.416641 13.317566 26.446527
v 21.097977 15.940793 34.837238
v 17.877876 21.784193 46.772800
v 31.109932 18.703176 44.157719
v 49.085793 19.808243 51.802502
v 34.346642 21.995926 54.579151
v 21.235275 26.441872 56.291344
v 50.625664 25.727175 77.295593
v 48.644203 28.314081 83.061096
v 68.929512 22.965790 89.298004
v 86.429024 19.476036 103.501129
v 103.077782 15.699594 112.319458
v 51.363243 144.750702 10.157495
v 55.409828 129.953384 1.682817
v 56.724220 131.969711 12.301477
v 59.516670 109.597595 -0.752743
v 60.508217 93.916077 -1.114284
v 62.075111 95.427429 18.959583
v 61.094109 114.392868 15.690486
v 59.548531 79.238091 -1.558703
v 50.799034 47.903202 -5.745152
v 53.290703 55.558479 3.420837
v 53.290260 57.380527 12.001197
v 50.863899 54.684258 21.803535
v 59.552895 77.880066 21.524588
v 59.351662 79.208878 -6.298537
v 44.066994 38.743893 4.418004
v 40.367203 38.217552 19.976234
v 40.654739 30.379353 -9.961556
v 36.867882 30.859726 8.493631
v 32.532768 29.082827 17.833818
v 14.422920 12.156082 4.537066
v 13.272606 12.791440 10.186877
v 18.438484 16.372837 12.084361
v 15.401375 11.961098 1.099513
v -2.946465 3.517593 -0.065746
v -4.638832 3.515129 3.812519
v -5.188454 3.522542 5.071788
v 10.990845 14.412281 21.991327
v 21.744064 21.425938 22.468073
v 25.966621 26.898714 29.991304
v 29.218483 33.853443 43.026512
v 36.515297 38.059731 33.914978
v 48.490791 52.845154 30.309822
v 42.971245 47.951832 40.685310
v 36.816849 43.745373 50.006226
v 58.245949 77.256348 44.630054
v 59.842751 82.857712 48.595585
v 63.103157 97.410599 37.456745
v 62.382408 119.206512 30.511705
v 57.958000 134.206146 22.926699
v 9.233322 8.299093 -229.695419
v -17.080391 18.724209 -215.274948
v 6.833488 12.975627 -211.301987
v -27.410622 27.556631 -187.344254
v -30.538296 31.279133 -164.767502
v 4.058167 20.955315 -159.377731
v 5.381996 17.663565 -186.193344
v -32.498451 33.358082 -143.049149
v -36.847340 34.698578 -92.801208
v -25.749004 28.909882 -105.614105
v -13.780373 24.579773 -107.126617
v 0.168938 22.200092 -99.818069
v 3.230705 22.481199 -134.148148
v -39.344345 37.981129 -143.243759
v -22.703896 24.889324 -76.766129
v -1.778587 19.986734 -73.086914
v -38.022781 31.750584 -59.847511
v -15.638344 20.377090 -61.761181
v -2.727730 17.766594 -56.751945
v -11.424744 11.222147 -21.038326
v -4.520493 10.916397 -22.468765
v -4.613579 12.897799 -30.912897
v -15.700211 11.961632 -20.352119
v -7.446892 3.540520 4.256190
v -2.340523 3.539841 3.831894
v -0.682823 3.644978 3.739521
v 9.878693 13.100431 -24.182461
v 6.336494 15.584104 -39.929821
v 14.057701 18.970421 -48.375275
v 28.794090 26.720816 -54.525528
v 16.945763 22.255253 -67.154205
v 12.060890 22.801964 -93.160202
v 25.547600 26.530863 -79.622757
v 36.469826 32.807217 -66.568665
v 37.286865 30.993780 -117.911530
v 44.703423 34.700863 -121.379333
v 35.658699 26.282230 -148.403122
v 36.081917 20.385323 -179.833389
v 31.003334 13.705809 -204.535507
v 66.810402 167.485931 -89.866959
v 53.725578 149.900146 -92.637505
v 66.157921 150.795639 -88.338844
v 45.376350 125.959724 -90.789986
v 39.862053 108.159416 -87.036949
v 61.666939 106.844460 -77.018013
v 64.782906 129.081619 -84.014885
v 33.960548 91.938194 -82.132088
v 15.838844 58.229214 -67.497200
v 28.841774 65.271797 -66.982033
v 38.350777 65.987541 -62.700859
v 46.780449 61.597065 -54.290779
v 57.242500 86.986031 -68.311607
v 28.965363 92.623703 -84.658607
v 21.274956 46.548664 -53.259209
v 36.311516 43.715561 -41.497932
v 2.124023 39.121159 -54.820934
v 20.841751 37.047115 -42.222519
v 28.941994 33.699657 -32.947693
v 4.648926 15.097171 -17.023260
v 10.757545 15.210444 -13.631959
v 15.171448 19.447466 -18.834463
v 1.041008 15.264853 -19.392218
v -7.156685 3.710320 1.293385
v -3.137634 3.333218 4.445744
v -1.833626 3.219822 5.471581
v 23.508476 15.746428 -6.561128
v 28.673981 24.159876 -18.465773
v 39.351288 29.512377 -20.073332
v 55.885918 35.604671 -17.902079
v 49.677803 41.563931 -30.456512
v 54.183327 58.350716 -46.889828
v 61.602882 51.515213 -34.899120
v 68.103127 45.598106 -23.175537
v 80.053719 82.907341 -53.173531
v 86.521507 88.483345 -53.572697
v 81.582130 106.318489 -67.237480
v 82.298790 132.518021 -77.718758
v 78.575752 151.954529 -83.906906
v -87.049942 182.176376 74.870529
v -72.194153 173.283264 88.548492
v -80.783295 166.246338 78.705414
v -56.784809 153.038467 95.189362
v -45.327530 135.918472 95.779320
v -62.172153 122.078331 79.572899
v -72.086327 144.686829 80.697289
v -34.156033 119.392159 93.630653
v -7.032196 82.235176 79.820213
v -21.371483 86.898354 79.366997
v -30.735523 83.766197 74.406578
v -38.404011 74.334068 65.740868
v -52.736794 101.246193 75.346062
v -30.144588 122.828545 97.232567
v -11.392906 63.418846 64.786079
v -27.630291 54.355129 54.334633
v 9.246712 57.867813 62.921768
v -11.622986 49.721451 53.388298
v -21.429161 42.634987 45.669441
v -2.144722 20.131268 24.387133
v -9.388451 19.592712 23.503633
v -11.711403 25.155422 29.606730
v 2.287758 20.752254 25.196863
v 0.521362 3.657932 2.899441
v -4.836052 3.153603 2.248470
v -6.574669 2.995495 2.028053
v -24.417706 18.541533 21.262133
v -24.983948 29.263683 32.574074
v -34.868629 33.977001 35.568527
v -51.403652 37.063007 34.675064
v -42.566399 46.863121 44.849854
v -45.645794 66.976929 58.436150
v -53.682964 55.219837 47.739410
v -61.840195 45.310696 38.000885
v -72.252106 84.622459 56.728390
v -78.742310 87.578773 54.350414
v -77.971481 110.122261 64.197685
v -85.810516 137.511749 66.971230
v -89.406021 159.422852 68.630051
vn -0.1661 0.9759 0.1416
vn -0.1200 0.9925 -0.0250
vn -0.1543 0.9805 0.1213
vn -0.0578 0.9960 -0.0678
vn 0.0019 0.9917 -0.1286
vn -0.0593 0.9911 0.1190
vn -0.1180 0.9860 0.1175
vn 0.0787 0.9860 -0.1467
vn 0.1741 0.9500 -0.2593
vn 0.1647 0.9823 -0.0891
vn 0.0825 0.9864 0.1423
vn 0.0281 0.9880 0.1517
vn 0.0204 0.9876 -0.1556
vn 0.2198 0.9694 -0.1095
vn 0.1142 0.9848 0.1306
vn 0.2653 0.9434 -0.1990
vn 0.2601 0.9585 -0.1170
vn 0.1723 0.9763 0.1308
vn 0.3002 0.9508 0.0759
vn 0.2333 0.9579 0.1672
vn 0.2000 0.9688 0.1461
vn 0.2725 0.9608 0.0506
vn 0.2788 0.9532 0.1169
vn 0.2348 0.9525 0.1941
vn 0.1916 0.9448 0.2657
vn 0.1563 0.9561 0.2477
vn 0.1328 0.9571 0.2577
vn 0.0617 0.9436 0.3253
vn 0.0054 0.9208 0.3900
vn 0.0129 0.9387 0.3444
vn -0.0235 0.9340 0.3564
vn -0.1084 0.8628 0.4939
vn -0.0966 0.9152 0.3913
vn -0.1433 0.9155 0.3758
vn -0.1376 0.9292 0.3429
vn -0.1516 0.9478 0.2804
vn -0.1800 0.9497 0.2561
vn 0.0264 0.9620 0.2719
vn -0.0741 0.9872 0.1410
vn 0.0201 0.9688 0.2471
vn -0.0682 0.9961 0.0557
vn -0.0801 0.9962 -0.0348
vn 0.0858 0.9858 0.1443
vn 0.0439 0.9778 0.2050
vn -0.0472 0.9918 -0.1190
vn -0.0808 0.9599 -0.2686
vn 0.0603 0.9828 -0.1744
vn 0.2040 0.9788 0.0162
vn 0.1697 0.9824 0.0779
vn -0.0906 0.9936 -0.0667
vn 0.0827 0.9652 -0.2482
vn 0.2209 0.9749 -0.0262
vn 0.0346 0.9405 -0.3381
vn 0.1048 0.9515 -0.2892
vn 0.2616 0.9619 -0.0795
vn 0.3013 0.9264 -0.2257
vn 0.3387 0.9333 -0.1195
vn 0.2971 0.9498 -0.0982
vn 0.2604 0.9421 -0.2111
vn 0.3272 0.9261 -0.1877
vn 0.3650 0.9248 -0.1074
vn 0.3981 0.9168 -0.0310
vn 0.3590 0.9333 -0.0099
vn 0.3471 0.9376 0.0217
vn 0.3554 0.9267 0.1224
vn 0.3732 0.9046 0.2061
vn 0.3383 0.9244 0.1759
vn 0.3154 0.9233 0.2191
vn 0.3727 0.8541 0.3629
vn 0.2922 0.9046 0.3102
vn 0.2509 0.9051 0.3433
vn 0.2233 0.9188 0.3255
vn 0.1552 0.9362 0.3152
vn 0.1131 0.9355 0.3348
vn -0.0577 0.9510 0.3038
vn -0.1522 0.9219 0.3563
vn -0.0518 0.9561 0.2884
vn -0.1834 0.9247 0.3336
vn -0.2351 0.9182 0.3189
vn -0.0636 0.9838 0.1679
vn -0.0547 0.9689 0.2413
vn -0.2721 0.9178 0.2890
vn -0.3528 0.8785 0.3223
vn -0.2758 0.9437 0.1826
vn -0.1179 0.9930 -0.0120
vn -0.0870 0.9956 0.0350
vn -0.2637 0.9101 0.3197
vn -0.2817 0.9450 0.1660
vn -0.1440 0.9890 -0.0325
vn -0.3389 0.9117 0.2323
vn -0.3186 0.9340 0.1614
vn -0.1884 0.9793 -0.0742
vn -0.3092 0.9499 -0.0465
vn -0.2433 0.9605 -0.1354
vn -0.2115 0.9718 -0.1047
vn -0.2881 0.9575 -0.0152
vn -0.2879 0.9535 -0.0897
vn -0.2489 0.9543 -0.1657
vn -0.2080 0.9481 -0.2405
vn -0.1683 0.9621 -0.2147
vn -0.1332 0.9682 -0.2120
vn -0.0488 0.9658 -0.2545
vn 0.0159 0.9539 -0.2998
vn 0.0026 0.9683 -0.2499
vn 0.0430 0.9823 -0.1825
vn 0.1788 0.9423 -0.2829
vn 0.1272 0.9838 -0.1266
vn 0.1624 0.9865 -0.0207
vn 0.1373 0.9905 0.0114
vn 0.0806 0.9901 0.1149
vn 0.0635 0.9792 0.1927
vn -0.9174 -0.3544 0.1810
vn -0.9514 -0.2601 0.1650
vn -0.9443 -0.2827 0.1684
vn -0.9865 -0.1128 0.1188
vn -0.9968 0.0154 0.0786
vn -0.9972 0.0587 0.0463
vn -0.9853 -0.1224 0.1194
vn -0.9881 0.1514 0.0290
vn -0.9668 0.2554 -0.0007
vn -0.9314 0.3594 -0.0577
vn -0.8874 0.4481 -0.1079
vn -0.9694 0.2421 -0.0402
vn -0.9958 0.0631 0.0669
vn -0.7946 0.5830 -0.1694
vn -0.7717 0.6120 -0.1729
vn -0.7726 0.6033 -0.1976
vn -0.7295 0.6600 -0.1795
vn -0.6758 0.7117 -0.1916
vn -0.4725 0.8605 -0.1905
vn -0.4561 0.8673 -0.1994
vn -0.5712 0.7996 -0.1853
vn -0.5815 0.7970 -0.1632
vn -0.4005 0.8986 -0.1792
vn -0.3980 0.8978 -0.1887
vn -0.3956 0.8969 -0.1975
vn -0.4709 0.8556 -0.2147
vn -0.5939 0.7800 -0.1971
vn -0.6630 0.7205 -0.2033
vn -0.6781 0.7090 -0.1937
vn -0.7208 0.6672 -0.1878
vn -0.8581 0.4830 -0.1744
vn -0.8363 0.4732 -0.2770
vn -0.9487 0.3092 -0.0655
vn -0.9692 0.2445 0.0307
vn -0.9890 0.1401 0.0482
vn -0.9874 -0.1114 0.1122
vn -0.9524 -0.2574 0.1631
vn 0.1553 0.9621 -0.2243
vn 0.2725 0.9440 -0.1862
vn 0.1476 0.9656 -0.2139
vn 0.2878 0.9478 -0.1374
vn 0.3231 0.9429 -0.0810
vn 0.0905 0.9900 -0.1086
vn 0.1245 0.9773 -0.1715
vn 0.3309 0.9434 -0.0224
vn 0.4183 0.9077 0.0324
vn 0.2643 0.9624 0.0623
vn 0.0138 0.9982 0.0587
vn 0.0229 0.9997 -0.0041
vn 0.3457 0.9365 -0.0585
vn 0.2637 0.9595 0.0991
vn 0.0189 0.9949 0.0994
vn 0.3577 0.9273 0.1104
vn 0.2842 0.9488 0.1378
vn 0.0177 0.9863 0.1640
vn 0.1133 0.9582 0.2628
vn 0.0028 0.9671 0.2544
vn 0.0071 0.9786 0.2054
vn 0.1243 0.9668 0.2232
vn 0.0665 0.9599 0.2722
vn -0.0193 0.9606 0.2772
vn -0.1045 0.9543 0.2801
vn -0.1046 0.9673 0.2311
vn -0.1244 0.9725 0.1967
vn -0.2062 0.9668 0.1507
vn -0.2839 0.9510 0.1227
vn -0.2359 0.9662 0.1042
vn -0.2189 0.9751 0.0345
vn -0.3733 0.9277 -0.0063
vn -0.2380 0.9695 -0.0580
vn -0.1978 0.9703 -0.1394
vn -0.1575 0.9766 -0.1461
vn -0.0537 0.9816 -0.1833
vn 0.0023 0.9740 -0.2264
vn -0.3374 0.0989 0.9362
vn -0.3406 0.1672 0.9252
vn -0.3448 0.1524 0.9262
vn -0.3611 0.2716 0.8921
vn -0.3683 0.3581 0.8580
vn -0.3887 0.3875 0.8359
vn -0.3679 0.2674 0.8906
vn -0.3690 0.4446 0.8162
vn -0.3443 0.5129 0.7864
vn -0.3639 0.5688 0.7376
vn -0.3774 0.6187 0.6891
vn -0.4006 0.5000 0.7678
vn -0.3666 0.3889 0.8452
vn -0.3492 0.7006 0.6223
vn -0.3548 0.7123 0.6056
vn -0.3475 0.7173 0.6039
vn -0.3229 0.7448 0.5839
vn -0.3219 0.7710 0.5495
vn -0.2578 0.8596 0.4411
vn -0.2631 0.8650 0.4272
vn -0.2836 0.8213 0.4950
vn -0.2687 0.8195 0.5062
vn -0.2354 0.8858 0.4000
vn -0.2436 0.8858 0.3950
vn -0.2514 0.8857 0.3902
vn -0.2790 0.8588 0.4296
vn -0.3033 0.8095 0.5027
vn -0.3353 0.7737 0.5376
vn -0.3423 0.7642 0.5466
vn -0.3527 0.7413 0.5710
vn -0.4098 0.6384 0.6515
vn -0.4684 0.6337 0.6157
vn -0.4076 0.5371 0.7385
vn -0.3737 0.4955 0.7841
vn -0.3830 0.4338 0.8156
vn -0.3770 0.2769 0.8838
vn -0.3534 0.1722 0.9195
vn 0.7114 0.1129 -0.6936
vn 0.6580 0.1745 -0.7325
vn 0.6787 0.1551 -0.7178
vn 0.5810 0.2612 -0.7709
vn 0.4878 0.3532 -0.7983
vn 0.5109 0.3279 -0.7947
vn 0.6045 0.2407 -0.7593
vn 0.3974 0.4153 -0.8183
vn 0.2256 0.4646 -0.8563
vn 0.2775 0.4962 -0.8227
vn 0.2785 0.5228 -0.8057
vn 0.3995 0.4226 -0.8135
vn 0.4355 0.3993 -0.8068
vn 0.1534 0.6074 -0.7794
vn 0.1776 0.6033 -0.7775
vn 0.1150 0.6342 -0.7645
vn 0.0895 0.6520 -0.7529
vn 0.0927 0.6666 -0.7397
vn 0.0186 0.7592 -0.6505
vn 0.0310 0.7662 -0.6419
vn 0.0431 0.7149 -0.6979
vn 0.0224 0.7160 -0.6977
vn 0.0086 0.7930 -0.6092
vn 0.0203 0.7930 -0.6089
vn 0.0322 0.7929 -0.6085
vn 0.0491 0.7603 -0.6477
vn 0.0720 0.7008 -0.7097
vn 0.1286 0.6566 -0.7432
vn 0.1592 0.6378 -0.7535
vn 0.1756 0.6198 -0.7649
vn 0.3034 0.5161 -0.8010
vn 0.3688 0.4769 -0.7979
vn 0.4250 0.4149 -0.8045
vn 0.4957 0.3447 -0.7971
vn 0.5265 0.3186 -0.7882
vn 0.6171 0.2316 -0.7521
vn 0.6778 0.1621 -0.7172
vt 0.469305 0.984861
vt 0.292840 0.908337
vt 0.465900 0.908518
vt 0.208834 0.797127
vt 0.175070 0.710819
vt 0.482716 0.700969
vt 0.473259 0.807489
vt 0.148684 0.628697
vt 0.078708 0.440554
vt 0.212058 0.484461
vt 0.340739 0.489711
vt 0.489570 0.465396
vt 0.494829 0.601605
vt 0.077225 0.631964
vt 0.245492 0.372556
vt 0.484712 0.359214
vt 0.048950 0.316073
vt 0.329960 0.312702
vt 0.481928 0.293989
vt 0.387412 0.149731
vt 0.471714 0.155387
vt 0.468653 0.189724
vt 0.334503 0.147847
vt 0.438206 0.045211
vt 0.501223 0.046753
vt 0.521683 0.047253
vt 0.647519 0.167184
vt 0.596936 0.229768
vt 0.684267 0.269074
vt 0.859369 0.309805
vt 0.701114 0.347307
vt 0.619842 0.446721
vt 0.784395 0.406415
vt 0.937675 0.370069
vt 0.842438 0.574399
vt 0.909308 0.600554
vt 0.766956 0.691869
vt 0.714155 0.816929
vt 0.639716 0.908699
s 1
usemtl 20___Default.001
f 1/1/1 2/2/2 3/3/3
f 4/4/4 5/5/5 6/6/6 7/7/7
f 2/2/2 4/4/4 7/7/7 3/3/3
f 8/8/8 9/9/9 10/10/9 11/11/10
f 8/8/8 11/11/10 12/12/11 13/13/12
f 6/6/6 5/5/5 14/14/13 8/8/8
f 6/6/6 8/8/8 13/13/12
f 15/15/14 16/16/15 12/12/11 11/11/10
f 15/15/14 17/17/16 18/18/17 19/19/18
f 15/15/14 19/19/18 16/16/15
f 20/20/19 21/21/20 22/22/21 23/23/22
f 18/18/17 23/23/22 22/22/21 19/19/18
f 24/24/23 25/25/24 21/21/20 20/20/19
f 26/26/25 27/27/26 21/21/20 25/25/24
f 27/27/26 28/28/27 22/22/21 21/21/20
f 28/28/27 29/29/28 19/19/18 22/22/21
f 29/29/28 30/30/29 31/31/30 16/16/15
f 19/19/18 29/29/28 16/16/15
f 16/16/15 31/31/30 32/32/31 12/12/11
f 32/32/31 33/33/32 34/34/32 35/35/33
f 12/12/11 32/32/31 35/35/33 13/13/12
f 35/35/33 36/36/34 37/37/35 6/6/6
f 13/13/12 35/35/33 6/6/6
f 6/6/6 37/37/35 38/38/36 7/7/7
f 7/7/7 38/38/36 39/39/37 3/3/3
f 3/3/3 39/39/37 1/1/1
f 40/1/38 41/2/39 42/3/40
f 43/4/41 44/5/42 45/6/43 46/7/44
f 41/2/39 43/4/41 46/7/44 42/3/40
f 47/8/45 48/9/46 49/10/46 50/11/47
f 47/8/45 50/11/47 51/12/48 52/13/49
f 45/6/43 44/5/42 53/14/50 47/8/45
f 45/6/43 47/8/45 52/13/49
f 54/15/51 55/16/52 51/12/48 50/11/47
f 54/15/51 56/17/53 57/18/54 58/19/55
f 54/15/51 58/19/55 55/16/52
f 59/20/56 60/21/57 61/22/58 62/23/59
f 57/18/54 62/23/59 61/22/58 58/19/55
f 63/24/60 64/25/61 60/21/57 59/20/56
f 65/26/62 66/27/63 60/21/57 64/25/61
f 66/27/63 67/28/64 61/22/58 60/21/57
f 67/28/64 68/29/65 58/19/55 61/22/58
f 68/29/65 69/30/66 70/31/67 55/16/52
f 58/19/55 68/29/65 55/16/52
f 55/16/52 70/31/67 71/32/68 51/12/48
f 71/32/68 72/33/69 73/34/69 74/35/70
f 51/12/48 71/32/68 74/35/70 52/13/49
f 74/35/70 75/36/71 76/37/72 45/6/43
f 52/13/49 74/35/70 45/6/43
f 45/6/43 76/37/72 77/38/73 46/7/44
f 46/7/44 77/38/73 78/39/74 42/3/40
f 42/3/40 78/39/74 40/1/38
f 79/1/75 80/2/76 81/3/77
f 82/4/78 83/5/79 84/6/80 85/7/81
f 80/2/76 82/4/78 85/7/81 81/3/77
f 86/8/82 87/9/83 88/10/83 89/11/84
f 86/8/82 89/11/84 90/12/85 91/13/86
f 84/6/80 83/5/79 92/14/87 86/8/82
f 84/6/80 86/8/82 91/13/86
f 93/15/88 94/16/89 90/12/85 89/11/84
f 93/15/88 95/17/90 96/18/91 97/19/92
f 93/15/88 97/19/92 94/16/89
f 98/20/93 99/21/94 100/22/95 101/23/96
f 96/18/91 101/23/96 100/22/95 97/19/92
f 102/24/97 103/25/98 99/21/94 98/20/93
f 104/26/99 105/27/100 99/21/94 103/25/98
f 105/27/100 106/28/101 100/22/95 99/21/94
f 106/28/101 107/29/102 97/19/92 100/22/95
f 107/29/102 108/30/103 109/31/104 94/16/89
f 97/19/92 107/29/102 94/16/89
f 94/16/89 109/31/104 110/32/105 90/12/85
f 110/32/105 111/33/106 112/34/106 113/35/107
f 90/12/85 110/32/105 113/35/107 91/13/86
f 113/35/107 114/36/108 115/37/109 84/6/80
f 91/13/86 113/35/107 84/6/80
f 84/6/80 115/37/109 116/38/110 85/7/81
f 85/7/81 116/38/110 117/39/111 81/3/77
f 81/3/77 117/39/111 79/1/75
f 118/1/112 119/2/113 120/3/114
f 121/4/115 122/5/116 123/6/117 124/7/118
f 119/2/113 121/4/115 124/7/118 120/3/114
f 125/8/119 126/9/120 127/10/120 128/11/121
f 125/8/119 128/11/121 129/12/122 130/13/123
f 123/6/117 122/5/116 131/14/124 125/8/119
f 123/6/117 125/8/119 130/13/123
f 132/15/125 133/16/126 129/12/122 128/11/121
f 132/15/125 134/17/127 135/18/128 136/19/129
f 132/15/125 136/19/129 133/16/126
f 137/20/130 138/21/131 139/22/132 140/23/133
f 135/18/128 140/23/133 139/22/132 136/19/129
f 141/24/134 142/25/135 138/21/131 137/20/130
f 143/26/136 144/27/137 138/21/131 142/25/135
f 144/27/137 145/28/138 139/22/132 138/21/131
f 145/28/138 146/29/139 136/19/129 139/22/132
f 146/29/139 147/30/140 148/31/141 133/16/126
f 136/19/129 146/29/139 133/16/126
f 133/16/126 148/31/141 149/32/142 129/12/122
f 149/32/142 150/33/143 151/34/143 152/35/144
f 129/12/122 149/32/142 152/35/144 130/13/123
f 152/35/144 153/36/145 154/37/146 123/6/117
f 130/13/123 152/35/144 123/6/117
f 123/6/117 154/37/146 155/38/147 124/7/118
f 124/7/118 155/38/147 156/39/148 120/3/114
f 120/3/114 156/39/148 118/1/112
f 157/1/149 158/2/150 159/3/151
f 160/4/152 161/5/153 162/6/154 163/7/155
f 158/2/150 160/4/152 163/7/155 159/3/151
f 164/8/156 165/9/157 166/10/157 167/11/158
f 164/8/156 167/11/158 168/12/159 169/13/160
f 162/6/154 161/5/153 170/14/161 164/8/156
f 162/6/154 164/8/156 169/13/160
f 171/15/162 172/16/163 168/12/159 167/11/158
f 171/15/162 173/17/164 174/18/165 175/19/166
f 171/15/162 175/19/166 172/16/163
f 176/20/167 177/21/168 178/22/169 179/23/170
f 174/18/165 179/23/170 178/22/169 175/19/166
f 180/24/171 181/25/172 177/21/168 176/20/167
f 182/26/173 183/27/174 177/21/168 181/25/172
f 183/27/174 184/28/175 178/22/169 177/21/168
f 184/28/175 185/29/176 175/19/166 178/22/169
f 185/29/176 186/30/177 187/31/178 172/16/163
f 175/19/166 185/29/176 172/16/163
f 172/16/163 187/31/178 188/32/179 168/12/159
f 188/32/179 189/33/180 190/34/180 191/35/181
f 168/12/159 188/32/179 191/35/181 169/13/160
f 191/35/181 192/36/182 193/37/183 162/6/154
f 169/13/160 191/35/181 162/6/154
f 162/6/154 193/37/183 194/38/184 163/7/155
f 163/7/155 194/38/184 195/39/185 159/3/151
f 159/3/151 195/39/185 157/1/149
f 196/1/186 197/2/187 198/3/188
f 199/4/189 200/5/190 201/6/191 202/7/192
f 197/2/187 199/4/189 202/7/192 198/3/188
f 203/8/193 204/9/194 205/10/194 206/11/195
f 203/8/193 206/11/195 207/12/196 208/13/197
f 201/6/191 200/5/190 209/14/198 203/8/193
f 201/6/191 203/8/193 208/13/197
f 210/15/199 211/16/200 207/12/196 206/11/195
f 210/15/199 212/17/201 213/18/202 214/19/203
f 210/15/199 214/19/203 211/16/200
f 215/20/204 216/21/205 217/22/206 218/23/207
f 213/18/202 218/23/207 217/22/206 214/19/203
f 219/24/208 220/25/209 216/21/205 215/20/204
f 221/26/210 222/27/211 216/21/205 220/25/209
f 222/27/211 223/28/212 217/22/206 216/21/205
f 223/28/212 224/29/213 214/19/203 217/22/206
f 224/29/213 225/30/214 226/31/215 211/16/200
f 214/19/203 224/29/213 211/16/200
f 211/16/200 226/31/215 227/32/216 207/12/196
f 227/32/216 228/33/217 229/34/217 230/35/218
f 207/12/196 227/32/216 230/35/218 208/13/197
f 230/35/218 231/36/219 232/37/220 201/6/191
f 208/13/197 230/35/218 201/6/191
f 201/6/191 232/37/220 233/38/221 202/7/192
f 202/7/192 233/38/221 234/39/222 198/3/188
f 198/3/188 234/39/222 196/1/186
f 235/1/223 236/2/224 237/3/225
f 238/4/226 239/5/227 240/6/228 241/7/229
f 236/2/224 238/4/226 241/7/229 237/3/225
f 242/8/230 243/9/231 244/10/231 245/11/232
f 242/8/230 245/11/232 246/12/233 247/13/234
f 240/6/228 239/5/227 248/14/235 242/8/230
f 240/6/228 242/8/230 247/13/234
f 249/15/236 250/16/237 246/12/233 245/11/232
f 249/15/236 251/17/238 252/18/239 253/19/240
f 249/15/236 253/19/240 250/16/237
f 254/20/241 255/21/242 256/22/243 257/23/244
f 252/18/239 257/23/244 256/22/243 253/19/240
f 258/24/245 259/25/246 255/21/242 254/20/241
f 260/26/247 261/27/248 255/21/242 259/25/246
f 261/27/248 262/28/249 256/22/243 255/21/242
f 262/28/249 263/29/250 253/19/240 256/22/243
f 263/29/250 264/30/251 265/31/252 250/16/237
f 253/19/240 263/29/250 250/16/237
f 250/16/237 265/31/252 266/32/253 246/12/233
f 266/32/253 267/33/254 268/34/254 269/35/255
f 246/12/233 266/32/253 269/35/255 247/13/234
f 269/35/255 270/36/256 271/37/257 240/6/228
f 247/13/234 269/35/255 240/6/228
f 240/6/228 271/37/257 272/38/258 241/7/229
f 241/7/229 272/38/258 273/39/259 237/3/225
f 237/3/225 273/39/259 235/1/223
